<svg id="f0d5adcd-4057-4b7a-b49b-6bb1fc8fede6" data-name="Layer 1" xmlns="http://www.w3.org/2000/svg" width="800" height="800" viewBox="0 0 800 800">
  <title>icon</title>
  <g>
    <path d="M459.512,340.988l340.851,5.586C798.682,449.169,754,541.027,674.328,605.686Z" style="fill: #4caf50"/>
    <path d="M459.512,340.988,751.53,165.1c35.262,58.544,49.953,113.139,48.833,181.472Z" style="fill: #ffc107"/>
    <path d="M459.512,340.988,608.625,34.433c61.458,29.894,107.644,72.126,142.9,130.669Z" style="fill: #f44336"/>
    <path d="M459.512,340.988l-324.324-105C193.177,56.872,385.39-41.324,564.509,16.664a319.5,319.5,0,0,1,44.116,17.769Z" style="fill: #9c27b0"/>
    <path d="M459.512,340.988l214.816,264.7C528.14,724.325,313.454,701.992,194.815,555.8c-75.455-92.976-96.507-205.893-59.627-319.812Z" style="fill: #2196f3"/>
  </g>
  <rect y="311.634" width="537.923" height="488.366" rx="45.906" style="opacity: 0.86"/>
  <g>
    <rect x="42.9" y="416.98" width="452.122" height="20" style="fill: #fff"/>
    <rect x="84.087" y="384.344" width="42.162" height="84.396" rx="7.313" style="fill: #fff"/>
  </g>
  <g>
    <rect x="42.9" y="546.256" width="452.122" height="20" style="fill: #fff"/>
    <rect x="214.038" y="513.619" width="42.162" height="84.396" rx="7.313" style="fill: #fff"/>
  </g>
  <g>
    <rect x="42.9" y="680.951" width="452.122" height="20" style="fill: #fff"/>
    <rect x="135.188" y="648.314" width="42.162" height="84.396" rx="7.313" style="fill: #fff"/>
  </g>
</svg>
